# xmcd
#
# Track frame offsets:
#	150
#	17855
#	39611
#	60464
#	79556
#	101835
#	122604
#	141036
#	158237
#	177690
#	199257
#	217868
#	241615
#	261432
#	284071
#	310253
#	328614
#
# Disc length: 4715 seconds
#
# Revision: 1
# Processed by: cddbd v1.5.2PL0 Copyright (c) Steve Scherf et al.
# Submitted via: EasyCDDAExtractor 12.0.1.1
#
DISCID=f7126911
DTITLE=Various Artist - Ultimate Slow Jams CD4
DYEAR=1900
DGENRE=R&B
TTITLE0=Aaron Hall - All The Places (I Will Kiss You)
TTITLE1=Subway Ft. 702 - This Little Game We Play
TTITLE2=Uncle Same Ft. Ruff Endz - Underneath The Sheets
TTITLE3=Blackstreet - Let's Stay In Love
TTITLE4=Blackstreet - Before I Let You Go
TTITLE5=Ruff Endz - Someone To Love You
TTITLE6=Shai - Comforter
TTITLE7=Silk - Sexin You
TTITLE8=IMX - First Of All
TTITLE9=Ruff Endz - Threesome
TTITLE10=Keith Sweat - Nobody
TTITLE11=Guy - Let's Chill
TTITLE12=Tony Toni Tone - Anniversary
TTITLE13=Tevin Campbell - Always In My Heart
TTITLE14=Teddy Pendergrass - Turn Out The Lights
TTITLE15=Roger And Zapp - I Wanna Be Your Man
TTITLE16=Isley Brothers - Between The Sheets
EXTD=
EXTT0=
EXTT1=
EXTT2=
EXTT3=
EXTT4=
EXTT5=
EXTT6=
EXTT7=
EXTT8=
EXTT9=
EXTT10=
EXTT11=
EXTT12=
EXTT13=
EXTT14=
EXTT15=
EXTT16=
PLAYORDER=
